<svg xmlns="http://www.w3.org/2000/svg" viewBox="0 0 500 500"><g id="freepik--background-complete--inject-22"><rect x="72.24" y="83.94" width="66.59" height="42.23" transform="translate(-13.23 15.22) rotate(-7.77)" style="opacity: 0.1; fill:#ebebeb"></rect><path d="M135.68,79.64c-2.32,2.91-4.7,5.72-7,8.59s-4.76,5.65-7.15,8.45-5,5.82-7.52,8.7l-.23.28q-3.33,3.81-6.7,7.63l-.33.36-.41-.26c-2.84-1.85-5.66-3.7-8.49-5.57a2.49,2.49,0,0,1-.3-.19c-3.2-2.11-6.4-4.23-9.59-6.39s-6.1-4.12-9.14-6.21-6.07-4.21-9.08-6.4c3.13,1.8,6.23,3.71,9.33,5.57s6.21,3.8,9.31,5.74q5.16,3.21,10.32,6.53h0q3.87,2.46,7.73,5c2-2.29,4.07-4.58,6.12-6.84,0,0,0,0,0,0,2.73-3,5.45-6.06,8.2-9.06q3.69-4,7.42-8C130.67,84.88,133.14,82.21,135.68,79.64Z" style="opacity: 0.1; fill:#fff"></path><path d="M98.89,107.41l-.07.08c-.3.34-.61.69-.92,1-1.46,1.62-3,3.19-4.52,4.73-1.88,1.89-3.82,3.72-5.78,5.54s-3.94,3.57-6,5.3-4.1,3.44-6.25,5c1.76-2,3.62-3.94,5.5-5.82s3.83-3.72,5.78-5.54,4-3.59,6-5.32c1.62-1.38,3.27-2.75,5-4.05.39-.31.79-.6,1.19-.9Z" style="opacity: 0.1; fill:#fff"></path><path d="M141,120.16c-2.5-1-4.95-2-7.36-3.17s-4.81-2.32-7.19-3.51-4.73-2.48-7-3.8c-1.89-1.06-3.77-2.16-5.6-3.33l-1.18-.75-.08-.06.1,0,1.39.56c2,.79,3.93,1.67,5.87,2.57,2.43,1.12,4.81,2.31,7.18,3.52s4.73,2.47,7,3.79S138.8,118.68,141,120.16Z" style="opacity: 0.1; fill:#fff"></path><rect x="358.14" y="217.64" width="52.2" height="82.31" transform="translate(43.9 573.09) rotate(-76.68)" style="opacity: 0.1; fill:#ebebeb"></rect><path d="M430.3,242.87c-4,2.33-8,4.51-11.94,6.79s-8,4.4-12,6.56q-6.27,3.39-12.54,6.69l-.39.23L382.31,269l-.54.26-.36-.48q-3.68-5.08-7.31-10.2c-.09-.11-.18-.23-.26-.35-2.76-3.86-5.51-7.72-8.23-11.63-2.6-3.71-5.19-7.47-7.77-11.23s-5.13-7.56-7.63-11.42c2.81,3.47,5.53,7.05,8.29,10.58s5.48,7.13,8.18,10.75q4.51,6,9,12.12s0,0,0,0l6.72,9.15c3.35-1.73,6.73-3.48,10.09-5.17,0,0,0,0,0,0q6.73-3.43,13.49-6.8,6-3,12.11-5.93C422.2,246.69,426.24,244.71,430.3,242.87Z" style="opacity: 0.1; fill:#fff"></path><path d="M375.53,258.55l-.12.06-1.51.77c-2.41,1.22-4.85,2.36-7.32,3.44-3,1.34-6.06,2.59-9.12,3.82s-6.14,2.37-9.26,3.46-6.24,2.14-9.44,3c2.94-1.56,5.93-2.94,8.94-4.28s6.07-2.59,9.12-3.82,6.15-2.38,9.27-3.47c2.48-.88,5-1.72,7.53-2.46l1.77-.51Z" style="opacity: 0.1; fill:#fff"></path><path d="M418.47,292c-2.46-2.22-4.8-4.56-7.08-6.93s-4.52-4.8-6.73-7.25-4.36-4.95-6.44-7.5c-1.71-2.07-3.39-4.17-5-6.34q-.53-.69-1-1.38a1,1,0,0,0-.08-.11.48.48,0,0,0,.11.09l1.35,1.26c1.94,1.8,3.79,3.68,5.63,5.57,2.3,2.37,4.51,4.81,6.72,7.26s4.35,4.95,6.44,7.5S416.55,289.29,418.47,292Z" style="opacity: 0.1; fill:#fff"></path><path d="M82.59,325.25l-13.12.28-6.66.11c-2.23.05-4.47,0-6.7.05h-.44v-.45l-.06-11.19v-.5h.5l13.24.06c4.42,0,8.83.11,13.24.17h.28v.27c0,1.9-.09,3.79-.13,5.65Zm0,0-.14-5.66c0-1.86-.11-3.7-.13-5.53l.27.27c-4.41.05-8.82.16-13.24.17l-13.24.06.5-.5,0,11.19-.45-.45c2.18,0,4.36,0,6.55.06l6.58.11Z" style="opacity: 0.1; fill:#ebebeb"></path><path d="M67.82,339.36l-13.12.28-6.66.11c-2.23.05-4.47,0-6.7.05H40.9v-.45l-.06-11.19v-.5h.5l13.24.06c4.41,0,8.83.11,13.24.17h.28v.27c0,1.9-.08,3.79-.13,5.65Zm0,0-.14-5.66c-.05-1.86-.11-3.7-.13-5.53l.27.27c-4.41.05-8.83.16-13.24.17l-13.24.06.5-.5-.05,11.19-.45-.45c2.18,0,4.36,0,6.55.06l6.58.11Z" style="opacity: 0.1; fill:#ebebeb"></path><path d="M283.17,199.57l-13.12.28-6.66.11c-2.23,0-4.47,0-6.7.06h-.44v-.45l-.06-11.19v-.5h.5l13.24.06c4.42,0,8.83.12,13.24.17h.28v.27c0,1.9-.09,3.79-.14,5.66Zm0,0-.14-5.65c0-1.87-.11-3.71-.13-5.54l.27.27c-4.41.06-8.82.16-13.24.17l-13.24.06.5-.5-.05,11.19-.45-.44c2.18,0,4.36,0,6.55.05l6.58.11Z" style="opacity: 0.1; fill:#ebebeb"></path><path d="M268.4,213.68l-13.12.28-6.66.11c-2.23.05-4.47,0-6.7.06h-.44v-.45l-.06-11.19V202h.5l13.24.06c4.41,0,8.83.12,13.24.17h.28v.27c0,1.9-.08,3.79-.13,5.65Zm0,0-.14-5.65c-.05-1.87-.11-3.71-.13-5.54l.27.27c-4.41.06-8.83.16-13.24.17l-13.24.06.5-.5,0,11.19-.45-.44c2.18,0,4.36,0,6.55,0l6.58.11Z" style="opacity: 0.1; fill:#ebebeb"></path><path d="M253.69,199.57l-13.13.28-6.66.11c-2.22,0-4.46,0-6.69.06h-.45v-.45l0-11.19v-.5h.5l13.24.06c4.41,0,8.82.12,13.24.17H254v.27c0,1.9-.09,3.79-.13,5.66Zm0,0-.14-5.65c-.05-1.87-.12-3.71-.14-5.54l.28.27c-4.42.06-8.83.16-13.24.17l-13.24.06.5-.5-.06,11.19-.44-.44c2.18,0,4.35,0,6.54.05l6.58.11Z" style="opacity: 0.1; fill:#ebebeb"></path><path d="M458.66,339.36l-13.13.28-6.66.11c-2.22.05-4.46,0-6.69.05h-.45v-.45l-.05-11.19v-.5h.5l13.24.06c4.41,0,8.83.11,13.24.17h.27v.27c0,1.9-.08,3.79-.13,5.65Zm0,0-.14-5.66c0-1.86-.12-3.7-.13-5.53l.27.27c-4.41.05-8.83.16-13.24.17l-13.24.06.5-.5-.06,11.19-.44-.45c2.18,0,4.36,0,6.54.06l6.58.11Z" style="opacity: 0.1; fill:#ebebeb"></path><path d="M443.89,56.92l-13.13.27-6.66.12c-2.22,0-4.46,0-6.69,0H417v-.44l0-11.19v-.51h.51l13.24.06c4.41,0,8.82.11,13.24.16h.27v.27c0,1.89-.09,3.78-.13,5.65Zm0,0-.14-5.66c-.05-1.86-.12-3.7-.14-5.53l.28.27c-4.42,0-8.83.16-13.24.16l-13.24.07.5-.5-.06,11.19-.44-.45c2.18,0,4.35,0,6.54.05l6.58.12Z" style="opacity: 0.1; fill:#ebebeb"></path><path d="M458.66,71l-13.13.27-6.66.12c-2.22,0-4.46,0-6.69,0h-.45V71l-.05-11.19v-.51h.5l13.24.06c4.41,0,8.83.11,13.24.16h.27v.27c0,1.89-.08,3.78-.13,5.65Zm0,0-.14-5.66c0-1.86-.12-3.7-.13-5.53l.27.27c-4.41,0-8.83.16-13.24.16l-13.24.06.5-.49L432.62,71l-.44-.45c2.18,0,4.36,0,6.54,0l6.58.12Z" style="opacity: 0.1; fill:#ebebeb"></path><path d="M67.82,56.92l-13.12.27L48,57.31c-2.23,0-4.47,0-6.7,0H40.9v-.44l-.06-11.19v-.51h.5l13.24.06c4.41,0,8.83.11,13.24.16h.28v.27c0,1.89-.08,3.78-.13,5.65Zm0,0-.14-5.66c-.05-1.86-.11-3.7-.13-5.53l.27.27c-4.41,0-8.83.16-13.24.16l-13.24.07.5-.5-.05,11.19-.45-.45c2.18,0,4.36,0,6.55.05l6.58.12Z" style="opacity: 0.1; fill:#ebebeb"></path><path d="M413.26,130.21A24.53,24.53,0,1,0,402,103.65,24.36,24.36,0,0,0,413.26,130.21Z" style="opacity: 0.1; fill:#ebebeb"></path><path d="M418.41,106.47a7.47,7.47,0,1,0,7.38-7.55A7.47,7.47,0,0,0,418.41,106.47Z" style="opacity: 0.1; fill:#fff"></path><path d="M413.22,127.13l0,3.08a24.51,24.51,0,0,0,25.8-.32l0-3.07a12.91,12.91,0,0,0-25.81.31Z" style="opacity: 0.1; fill:#fff"></path><path d="M58.75,230.46a19,19,0,0,0,20-.24,19,19,0,1,0-20,.24Z" style="opacity: 0.1; fill:#ebebeb"></path><path d="M62.74,212.09a5.78,5.78,0,1,0,5.71-5.85A5.78,5.78,0,0,0,62.74,212.09Z" style="opacity: 0.1; fill:#fff"></path><path d="M58.73,228.08l0,2.38a19,19,0,0,0,20-.24l0-2.38a10,10,0,0,0-20,.24Z" style="opacity: 0.1; fill:#fff"></path><path d="M165.16,57.07a11.53,11.53,0,0,0,12.16-.15,11.57,11.57,0,1,0-12.16.15Z" style="opacity: 0.1; fill:#ebebeb"></path><path d="M167.59,45.88a3.52,3.52,0,1,0,3.48-3.56A3.53,3.53,0,0,0,167.59,45.88Z" style="opacity: 0.1; fill:#fff"></path><path d="M165.14,55.62l0,1.45a11.53,11.53,0,0,0,12.16-.15l0-1.45a6.08,6.08,0,0,0-12.16.15Z" style="opacity: 0.1; fill:#fff"></path></g><g id="freepik--Sparkles--inject-22"><path d="M316.74,157.35a4.85,4.85,0,0,1-.5-2.29,4.9,4.9,0,0,1,.5-2.29,5,5,0,0,1,.5,2.29A5.1,5.1,0,0,1,316.74,157.35Z" style="opacity: 0.1; fill:#263238"></path><path d="M312.6,159.13a5,5,0,0,1-2-1.27,5,5,0,0,1-1.26-2,5.5,5.5,0,0,1,3.23,3.24Z" style="opacity: 0.1; fill:#263238"></path><path d="M310.94,163.31a5.49,5.49,0,0,1-4.58,0,4.87,4.87,0,0,1,2.29-.5A5,5,0,0,1,310.94,163.31Z" style="opacity: 0.1; fill:#263238"></path><path d="M312.72,167.44a5.53,5.53,0,0,1-3.25,3.24,5.53,5.53,0,0,1,3.25-3.24Z" style="opacity: 0.1; fill:#263238"></path><path d="M316.9,169.1a5,5,0,0,1,.49,2.3,4.9,4.9,0,0,1-.5,2.29,5.16,5.16,0,0,1-.5-2.29A5.05,5.05,0,0,1,316.9,169.1Z" style="opacity: 0.1; fill:#263238"></path><path d="M321,167.33a5.5,5.5,0,0,1,3.23,3.24,5.5,5.5,0,0,1-3.23-3.24Z" style="opacity: 0.1; fill:#263238"></path><path d="M322.69,163.15a5.49,5.49,0,0,1,4.58,0,4.87,4.87,0,0,1-2.29.5A5.13,5.13,0,0,1,322.69,163.15Z" style="opacity: 0.1; fill:#263238"></path><path d="M320.91,159a5.08,5.08,0,0,1,1.27-2,5,5,0,0,1,2-1.27,5.53,5.53,0,0,1-3.25,3.24Z" style="opacity: 0.1; fill:#263238"></path><path d="M194.53,255.73a5,5,0,0,1-.5-2.3,5.16,5.16,0,0,1,.5-2.29,4.91,4.91,0,0,1,.5,2.3A5.16,5.16,0,0,1,194.53,255.73Z" style="opacity: 0.1; fill:#263238"></path><path d="M190.4,257.5a5.48,5.48,0,0,1-3.24-3.24,5.55,5.55,0,0,1,3.24,3.24Z" style="opacity: 0.1; fill:#263238"></path><path d="M188.73,261.68a5,5,0,0,1-2.29.5,5.13,5.13,0,0,1-2.29-.5,4.9,4.9,0,0,1,2.29-.5A5.1,5.1,0,0,1,188.73,261.68Z" style="opacity: 0.1; fill:#263238"></path><path d="M190.51,265.81a5.55,5.55,0,0,1-3.24,3.24,5.55,5.55,0,0,1,3.24-3.24Z" style="opacity: 0.1; fill:#263238"></path><path d="M194.69,267.48a5.1,5.1,0,0,1,.5,2.29,5,5,0,0,1-.51,2.29,5,5,0,0,1-.49-2.29A4.85,4.85,0,0,1,194.69,267.48Z" style="opacity: 0.1; fill:#263238"></path><path d="M198.82,265.7a5.55,5.55,0,0,1,3.24,3.24,5,5,0,0,1-2-1.27A5.07,5.07,0,0,1,198.82,265.7Z" style="opacity: 0.1; fill:#263238"></path><path d="M200.48,261.52a5.17,5.17,0,0,1,2.3-.5,5,5,0,0,1,2.29.51,5,5,0,0,1-2.3.49A4.9,4.9,0,0,1,200.48,261.52Z" style="opacity: 0.1; fill:#263238"></path><path d="M198.71,257.39a5.48,5.48,0,0,1,3.24-3.24,5,5,0,0,1-1.27,2A5.07,5.07,0,0,1,198.71,257.39Z" style="opacity: 0.1; fill:#263238"></path><path d="M299,330.3a1.6,1.6,0,0,1-.5-1.19,1.58,1.58,0,0,1,.5-1.18,1.66,1.66,0,0,1,.5,1.18A1.68,1.68,0,0,1,299,330.3Z" style="opacity: 0.1; fill:#263238"></path><path d="M296.84,331.21a1.63,1.63,0,0,1-1.19-.48,1.66,1.66,0,0,1-.48-1.19,1.62,1.62,0,0,1,1.19.48A1.63,1.63,0,0,1,296.84,331.21Z" style="opacity: 0.1; fill:#263238"></path><path d="M296,333.37a1.64,1.64,0,0,1-2.36,0,1.58,1.58,0,0,1,1.18-.5A1.64,1.64,0,0,1,296,333.37Z" style="opacity: 0.1; fill:#263238"></path><path d="M296.9,335.5a1.66,1.66,0,0,1-.48,1.19,1.62,1.62,0,0,1-1.19.49,1.6,1.6,0,0,1,.48-1.19A1.62,1.62,0,0,1,296.9,335.5Z" style="opacity: 0.1; fill:#263238"></path><path d="M299.06,336.36a1.68,1.68,0,0,1,.5,1.19,1.66,1.66,0,0,1-.5,1.18,1.6,1.6,0,0,1-.5-1.18A1.64,1.64,0,0,1,299.06,336.36Z" style="opacity: 0.1; fill:#263238"></path><path d="M301.19,335.45a1.62,1.62,0,0,1,1.19.48,1.58,1.58,0,0,1,.48,1.19,1.66,1.66,0,0,1-1.19-.48A1.67,1.67,0,0,1,301.19,335.45Z" style="opacity: 0.1; fill:#263238"></path><path d="M302.05,333.29a1.63,1.63,0,0,1,1.18-.5.7.7,0,1,1,0,1A1.68,1.68,0,0,1,302.05,333.29Z" style="opacity: 0.1; fill:#263238"></path><path d="M301.13,331.16a1.67,1.67,0,1,1,1.19-.49A1.62,1.62,0,0,1,301.13,331.16Z" style="opacity: 0.1; fill:#263238"></path></g><g id="freepik--paper-plane--inject-22"><path d="M150.43,244.88l-.52-.54,1.46-1.38.51.55Z" style="opacity: 0.1; fill:#263238"></path><path d="M157,324.14c-1.36,0-2.72-.11-4-.25l.08-.74c1.3.13,2.63.21,4,.24Zm5-.08,0-.75c1.3-.08,2.64-.19,4-.35l.09.75C164.73,323.86,163.38,324,162.06,324.06ZM148,323.13c-1.34-.28-2.66-.63-3.92-1l.23-.71c1.23.38,2.52.72,3.84,1Zm23.07-.18-.13-.74c1.28-.24,2.6-.51,3.9-.82l.18.73C173.69,322.43,172.36,322.71,171.06,323Zm8.81-2.12-.21-.72c1.27-.37,2.55-.78,3.81-1.21l.24.71C182.44,320,181.15,320.45,179.87,320.83Zm-40.52-.55a33.59,33.59,0,0,1-3.55-1.95l.4-.63a32.06,32.06,0,0,0,3.47,1.9Zm49.09-2.39-.27-.7c1.22-.48,2.47-1,3.7-1.52l.29.69C190.93,316.89,189.67,317.41,188.44,317.89Zm-56.68-2.63a28.69,28.69,0,0,1-2.8-2.94l.58-.48a27.31,27.31,0,0,0,2.73,2.87Zm65-1-.32-.67c1.18-.57,2.38-1.17,3.58-1.79l.34.67C199.14,313.1,197.93,313.7,196.74,314.27Zm8-4.18-.37-.65q1.75-1,3.45-2l.39.64C207.1,308.76,205.94,309.43,204.77,310.09Zm-78.63-2a27,27,0,0,1-1.65-3.71l.71-.25a27.86,27.86,0,0,0,1.6,3.61Zm86.36-2.68-.41-.63q1.69-1.09,3.33-2.22l.42.62C214.74,303.94,213.63,304.68,212.5,305.41Zm7.43-5.14-.44-.6c1.08-.8,2.14-1.6,3.19-2.42l.46.59C222.08,298.66,221,299.47,219.93,300.27Zm-96.72-.8a31.06,31.06,0,0,1-.42-4l.74,0a31.66,31.66,0,0,0,.42,3.94Zm103.85-4.76-.48-.58c1-.85,2.06-1.71,3.07-2.58l.49.57C229.12,293,228.1,293.86,227.06,294.71Zm-103.39-4.26-.75-.07c.13-1.31.32-2.65.59-4l.73.14C124,287.85,123.79,289.17,123.67,290.45Zm110.24-1.65-.5-.55c1-.9,2-1.8,2.94-2.71l.51.55C235.88,287,234.9,287.91,233.91,288.8Zm6.58-6.16-.52-.54,2.86-2.8.53.53Zm-115-.95-.72-.22c.39-1.25.83-2.53,1.33-3.81l.69.27C126.27,279.19,125.83,280.46,125.45,281.69Zm121.45-5.42-.54-.52c.94-.95,1.87-1.91,2.8-2.87l.54.52Zm-118.16-2.91-.67-.33c.57-1.18,1.19-2.39,1.85-3.58l.66.36C129.92,271,129.31,272.19,128.74,273.36Zm124.44-3.57-.54-.52,2.77-2.9.54.52Zm-120-4.27-.63-.4c.7-1.11,1.46-2.23,2.24-3.35l.61.44C134.58,263.31,133.83,264.42,133.13,265.52Zm126.28-2.27-.55-.51,2.77-2.91.54.52Zm-121.08-5.06-.59-.46c.8-1,1.65-2.08,2.53-3.13l.57.48C140,256.12,139.12,257.17,138.33,258.19Zm127.31-1.46-.54-.52q1.38-1.44,2.79-2.88l.54.52Q267,255.29,265.64,256.73Zm-121.5-5.41-.55-.5c.89-1,1.81-1.95,2.76-2.93l.53.52C145.94,249.38,145,250.36,144.14,251.32Zm127.79-1-.53-.52c.94-.95,1.88-1.9,2.84-2.85l.52.54Zm6.41-6.34-.52-.54c.95-.93,1.92-1.86,2.89-2.78l.52.54C280.25,242.08,279.29,243,278.34,243.93Zm6.54-6.2-.5-.55c1-.9,2-1.8,3-2.71l.51.56Zm6.72-6-.5-.57c1-.87,2-1.74,3-2.61l.49.57C293.61,230,292.6,230.85,291.6,231.72Zm6.89-5.81-.47-.58c1-.84,2.07-1.68,3.13-2.51l.46.58Zm7.08-5.57-.46-.6c1.06-.8,2.13-1.61,3.22-2.41l.44.61C307.69,218.74,306.62,219.54,305.57,220.34Zm7.26-5.33-.43-.62c1.08-.76,2.18-1.53,3.29-2.29l.42.61C315,213.48,313.91,214.24,312.83,215Zm7.44-5.09-.41-.62c1.1-.73,2.23-1.46,3.37-2.19l.4.63C322.49,208.47,321.37,209.19,320.27,209.92Zm7.61-4.83-.4-.64c1.13-.69,2.28-1.38,3.44-2.07l.38.65C330.15,203.71,329,204.4,327.88,205.09Zm7.75-4.58-.37-.65c1.16-.66,2.32-1.31,3.51-2l.36.65C338,199.2,336.78,199.86,335.63,200.51Zm7.91-4.33-.36-.67c1.18-.62,2.36-1.24,3.57-1.85l.34.67C345.89,194.94,344.7,195.56,343.54,196.18Zm8-4.1-.33-.67c1.19-.59,2.39-1.17,3.61-1.75l.33.67C354,190.91,352.75,191.5,351.56,192.08Zm8.14-3.87-.31-.68,3.66-1.65.31.68Zm8.25-3.65-.3-.69c1.23-.52,2.46-1,3.71-1.55l.28.69Z" style="opacity: 0.1; fill:#263238"></path><path d="M376.53,181l-.28-.7,1.86-.73.28.69Z" style="opacity: 0.1; fill:#263238"></path><polygon points="374.15 168.5 367.54 186.65 381.42 175.82 434.46 156.58 374.15 168.5" style="opacity: 0.1; fill:#CFD8DC"></polygon><polygon points="374.15 168.5 367.54 186.65 381.42 175.82 434.46 156.58 374.15 168.5" style="opacity:0.1"></polygon><polygon points="383.19 180.05 367.54 186.65 381.42 175.82 383.19 180.05" style="opacity: 0.1; fill:#263238"></polygon><polygon points="381.42 175.82 434.46 156.58 390.95 199.04 381.42 175.82" style="opacity: 0.1; fill:#CFD8DC"></polygon><polygon points="374.15 168.5 352.11 154.27 434.46 156.58 374.15 168.5" style="opacity: 0.1; fill:#CFD8DC"></polygon></g></svg>